HIERARCHY
ROOT root     
{
	OFFSET 0.0000 0.0000 0.0000
	CHANNELS 6 Xposition Yposition Zposition Zrotation Yrotation Xrotation
	JOINT pelvis   
	{
		OFFSET 0.0000 0.0000 0.0000
		CHANNELS 3 Zrotation Yrotation Xrotation
		JOINT thorax   
		{
			OFFSET 0.0000 23.0750 -5.0000
			CHANNELS 3 Zrotation Yrotation Xrotation
			JOINT rclavicle
			{
				OFFSET 0.0000 28.0009 0.0000
				CHANNELS 3 Zrotation Yrotation Xrotation
				JOINT rhumerus 
				{
					OFFSET -18.5725 5.5939 0.0000
					CHANNELS 3 Zrotation Yrotation Xrotation
					JOINT rradius  
					{
						OFFSET -24.8459 0.0000 0.0000
						CHANNELS 3 Zrotation Yrotation Xrotation
						JOINT rhand    
						{
							OFFSET -24.5477 0.0000 0.0000
							CHANNELS 3 Zrotation Yrotation Xrotation
							End Site
							{
								OFFSET -8.1826 0.0000 0.0000
							}
						}
					}
				}
			}
			JOINT lclavicle
			{
				OFFSET 0.0000 28.0009 0.0000
				CHANNELS 3 Zrotation Yrotation Xrotation
				JOINT lhumerus 
				{
					OFFSET 18.5725 5.5939 0.0000
					CHANNELS 3 Zrotation Yrotation Xrotation
					JOINT lradius  
					{
						OFFSET 24.8459 0.0000 0.0000
						CHANNELS 3 Zrotation Yrotation Xrotation
						JOINT lhand    
						{
							OFFSET 24.5477 0.0000 0.0000
							CHANNELS 3 Zrotation Yrotation Xrotation
							End Site
							{
								OFFSET 8.1826 0.0000 0.0000
							}
						}
					}
				}
			}
			JOINT head     
			{
				OFFSET 0.0000 35.2030 0.0000
				CHANNELS 3 Zrotation Yrotation Xrotation
				End Site
				{
					OFFSET 0.0000 11.7343 0.0000
				}
			}
		}
		JOINT rfemur   
		{
			OFFSET -8.2817 0.0000 0.0000
			CHANNELS 3 Zrotation Yrotation Xrotation
			JOINT rtibia   
			{
				OFFSET 0.0000 -43.3627 0.0000
				CHANNELS 3 Zrotation Yrotation Xrotation
				JOINT rfoot    
				{
					OFFSET 0.0000 -38.2947 0.0000
					CHANNELS 3 Zrotation Yrotation Xrotation
					JOINT rtoes    
					{
						OFFSET 0.0000 0.0000 16.6054
						CHANNELS 3 Zrotation Yrotation Xrotation
						End Site
						{
							OFFSET 0.0000 0.0000 5.5351
						}
					}
				}
			}
		}
		JOINT lfemur   
		{
			OFFSET 8.2817 0.0000 0.0000
			CHANNELS 3 Zrotation Yrotation Xrotation
			JOINT ltibia   
			{
				OFFSET 0.0000 -43.3627 0.0000
				CHANNELS 3 Zrotation Yrotation Xrotation
				JOINT lfoot    
				{
					OFFSET 0.0000 -38.2947 0.0000
					CHANNELS 3 Zrotation Yrotation Xrotation
					JOINT ltoes    
					{
						OFFSET 0.0000 0.0000 16.6054
						CHANNELS 3 Zrotation Yrotation Xrotation
						End Site
						{
							OFFSET 0.0000 0.0000 5.5351
						}
					}
				}
			}
		}
	}
}
MOTION
Frames: 19
Frame Time: .0333333
-61.241 76.437 -2.666 -50.7573 88.2953 -21.0103 0 -0 0 -5.38211 -9.81829 23.8188 16.5259 -10.7816 1.55893e-05 62.9426 -21.4847 10.4311 0 64.8826 0 -9.30175 4.9347 -0.401697 -6.03143 11.905 -2.51756e-05 -33.7851 -20.6467 -5.40873 180 -81.0231 180 -8.2588 3.5095 -0.253499 5.67809 5.64407 -11.59 14.1832 -5.99813 -75.6391 -0 -0 32.1717 -1.23074e-05 -13.4307 -5.1332 1.22399 -3.9871e-06 -37.1035 -3.61127 16.3196 -39.9783 -0 -0 62.9807 -1.20632e-05 6.96342 -17.774 -2.13524 9.7632e-07 -59.7159 
-59.605 76.245 -2.6269 -48.2173 88.879 -18.9021 0 -0 0 -5.08667 -10.4074 23.7028 16.3793 -11.5233 -7.5422e-05 62.2494 -22.5355 10.9929 8.84282e-07 66.1392 5.75772e-07 -8.32786 5.05097 -0.368001 -5.87184 12.1602 1.43226e-05 -33.0386 -20.3174 -5.91838 180 -79.9786 -180 -8.5244 3.39778 -0.253295 5.81495 5.5366 -11.7055 14.0669 -6.54744 -75.5438 -0 -0 31.2477 -1.68326e-05 -12.4992 -4.39883 0.974091 -3.1146e-07 -40.8203 -3.31716 16.152 -38.1044 -0 -0 62.5932 2.20907e-05 6.47617 -17.5524 -1.96069 1.31242e-06 -61.5787 
-57.942 76.023 -2.5933 -39.5904 89.4185 -10.6938 0 -0 0 -4.79444 -10.9954 23.5275 16.196 -12.253 3.27146e-05 61.6017 -23.5717 11.4896 -6.17198e-07 67.423 -9.25018e-07 -7.23805 5.15748 -0.326396 -5.71019 12.4386 1.63046e-05 -32.4048 -19.8961 -6.3407 180 -78.9618 -180 -8.79816 3.29133 -0.253296 5.91239 5.41877 -11.7855 13.8498 -7.10168 -75.4496 -0 -0 30.8419 -1.78011e-05 -11.7043 -3.65292 0.756203 -2.067e-06 -43.8543 -3.02604 15.9347 -36.1907 -0 -0 62.1708 -1.42883e-05 6.00812 -17.2813 -1.79066 1.9516e-05 -63.5606 
-56.253 75.771 -2.5642 24.1366 89.7815 52.6394 0 -0 0 -4.49899 -11.5845 23.2863 15.9774 -12.9587 5.17497e-06 61.0109 -24.6003 11.8988 9.71437e-07 68.7304 6.64301e-07 -6.06551 5.24246 -0.277898 -5.54318 12.7459 4.06077e-06 -31.891 -19.3945 -6.66367 180 -77.9652 -180 -9.07388 3.19322 -0.253404 5.96909 5.29013 -11.8352 13.5353 -7.65438 -75.3632 -0 -0 30.9406 -1.25964e-06 -11.0932 -2.84173 0.556903 3.67472e-06 -46.296 -2.73552 15.666 -34.248 -0 -0 61.7165 6.17946e-06 5.55119 -16.9462 -1.62268 2.9539e-05 -65.6341 
-54.541 75.49 -2.5378 98.893 89.4082 126.982 0 -0 0 -4.19114 -12.1756 22.9774 15.7217 -13.6324 -2.48563e-05 60.4869 -25.6119 12.2176 1.0238e-06 70.0302 7.17294e-07 -4.85724 5.30443 -0.225105 -5.36991 13.0752 1.4561e-05 -31.4977 -18.8009 -6.88867 180 -76.9842 -180 -9.34314 3.10886 -0.254102 5.98499 5.15004 -11.8598 13.1346 -8.20054 -75.2911 -0 -0 31.519 -6.40696e-06 -10.6838 -1.92865 0.363798 -5.27408e-06 -48.1099 -2.44042 15.348 -32.2833 -0 -0 61.23 1.63722e-05 5.09483 -16.5406 -1.45395 1.5446e-05 -67.7521 
-52.806 75.181 -2.5124 109.304 88.8849 136.996 0 -0 0 -3.85844 -12.7704 22.6034 15.4419 -14.2617 6.07682e-05 60.0265 -26.614 12.4204 0 71.3339 0 -3.62315 5.32615 -0.168601 -5.18685 13.453 2.9462e-05 -31.2372 -18.1544 -6.99822 180 -76.038 -180 -9.60709 3.03185 -0.254799 5.95926 4.99649 -11.8741 12.6709 -8.73969 -75.2465 -0 -0 32.5537 7.07231e-07 -10.4696 -0.873103 0.161303 3.8842e-07 -49.4104 -2.1314 14.9826 -30.3079 -0 -0 60.7146 -1.90895e-05 4.62467 -16.0624 -1.28208 3.50994e-06 -69.8605 
-51.051 74.848 -2.4857 113.132 88.3685 140.436 0 -0 0 -3.48791 -13.368 22.1729 15.1463 -14.8406 4.37166e-05 59.6246 -27.5966 12.5065 0 72.6311 0 -2.38701 5.30506 -0.1106 -4.99676 13.8818 1.25011e-05 -31.1032 -17.4613 -6.99658 180 -75.1214 -180 -9.86189 2.96299 -0.255698 5.89256 4.82965 -11.8924 12.1731 -9.27031 -75.2431 -0 -0 34.0149 6.217e-07 -10.4129 0.315996 -0.0580994 -6.12194e-07 -50.0024 -1.79806 14.5767 -28.3254 -0 -0 60.175 9.55067e-06 4.12798 -15.5134 -1.10591 -1.51261e-06 -71.8963 
-49.277 74.493 -2.4556 115.401 87.8675 142.319 0 -0 0 -3.0665 -13.9627 21.6963 14.834 -15.3644 -4.89527e-05 59.2829 -28.5372 12.4885 0 73.8907 0 -1.18763 5.25544 -0.0545014 -4.80712 14.3384 7.86638e-06 -31.0804 -16.6909 -6.90049 180 -74.2171 -180 -10.0995 2.90752 -0.257001 5.78674 4.65044 -11.9299 11.6724 -9.79121 -75.279 -0 -0 35.8544 2.32858e-06 -10.4591 1.60149 -0.2956 3.80043e-06 -49.7015 -1.42941 14.1405 -26.3365 -0 -0 59.6059 3.88247e-06 3.601 -14.9073 -0.927491 2.14309e-06 -73.7997 
-47.487 74.123 -2.4198 117.167 87.4173 143.704 0 -0 0 -2.58035 -14.5514 21.1847 14.5177 -15.8289 -9.02826e-07 58.9874 -29.4205 12.3641 0 75.1179 0 -0.0288999 5.17453 -0.00129998 -4.62392 14.83 -1.49207e-05 -31.1578 -15.8599 -6.71435 180 -73.3338 -180 -10.322 2.85896 -0.258293 5.6441 4.45909 -12.0015 11.2061 -10.3041 -75.3624 -0 -0 38.0343 -2.92612e-06 -10.5393 2.90273 -0.539807 3.33221e-06 -48.2425 -1.01398 13.6839 -24.3465 -0 -0 59.0134 2.32035e-05 3.04034 -14.2536 -0.749294 -4.65654e-06 -75.5455 
-45.681 73.741 -2.3764 118.806 87.0331 144.967 0 -0 0 -2.01726 -15.1257 20.6507 14.2136 -16.2316 -0.000114157 58.7205 -30.2258 12.1386 -1.11387e-06 76.3065 -1.41788e-06 1.07849 5.0673 0.0476993 -4.45698 15.3474 -1.85667e-05 -31.3219 -14.965 -6.45102 180 -72.4706 -180 -10.5303 2.81396 -0.2594 5.4681 4.25686 -12.1212 10.8075 -10.8092 -75.4918 -0 -0 40.5075 -6.70355e-06 -10.5826 4.09828 -0.764993 -1.44878e-06 -45.364 -0.542556 13.2144 -22.3555 -0 -0 58.3959 6.74021e-06 2.45149 -13.5611 -0.575208 1.04462e-06 -77.1302 
-43.864 73.353 -2.3241 120.426 86.7235 146.208 0 -0 0 -1.36863 -15.6742 20.107 13.9318 -16.573 1.40066e-05 58.4685 -30.9257 11.8245 -1.22796e-06 77.4413 -1.53164e-06 2.12507 4.94015 0.0916978 -4.31713 15.8802 2.02178e-06 -31.5538 -14.0034 -6.12535 180 -71.6236 -180 -10.7252 2.76788 -0.259892 5.26468 4.04609 -12.2986 10.504 -11.3056 -75.6606 -0 -0 43.2178 4.7354e-06 -10.5298 5.04689 -0.9368 3.03966e-06 -40.9417 -0.0109794 12.7391 -20.3683 -0 -0 57.7537 -1.26465e-05 1.84615 -12.8339 -0.410202 -1.37052e-06 -78.5846 
-42.039 72.966 -2.262 122.13 86.4992 147.536 0 -0 0 -0.629791 -16.1888 19.5638 13.6882 -16.8557 -7.75715e-05 58.2161 -31.4966 11.4254 -1.91969e-06 78.519 -2.34874e-06 3.10456 4.79726 0.130099 -4.21566 16.4182 -1.0936e-05 -31.8359 -12.9714 -5.75217 180 -70.7911 -180 -10.9094 2.71677 -0.259504 5.04026 3.82954 -12.5355 10.3119 -11.7898 -75.8524 -0 -0 46.1001 -4.90367e-06 -10.3489 5.63061 -1.02652 2.37629e-06 -35.1922 0.580177 12.2568 -18.3885 -0 -0 57.0859 6.98519e-06 1.24255 -12.063 -0.259699 -1.96169e-06 -79.9594 
-40.211 72.586 -2.1894 123.915 86.3683 148.947 0 -0 0 0.199725 -16.6581 19.0286 13.4927 -17.0809 3.20275e-05 57.9441 -31.9147 10.9575 -1.50302e-06 79.5338 -1.80613e-06 4.00454 4.64478 0.162497 -4.16169 16.9464 1.20909e-06 -32.1545 -11.8619 -5.34589 180 -69.9743 -180 -11.084 2.65672 -0.257802 4.80409 3.61035 -12.8327 10.2348 -12.2549 -76.0433 -0 -0 49.0777 4.07805e-06 -10.0412 5.78477 -1.02251 8.27087e-06 -28.7128 1.22399 11.7616 -16.4254 -0 -0 56.396 -1.18542e-07 0.660701 -11.2338 -0.1287 -6.8991e-07 -81.3233 
-38.385 72.219 -2.1059 125.873 86.3394 150.542 0 -0 0 1.11571 -17.0738 18.5033 13.3589 -17.2525 8.76878e-06 57.6416 -32.1596 10.4273 0 80.4748 0 4.8137 4.48676 0.188703 -4.16158 17.451 -9.62863e-06 -32.4966 -10.6701 -4.91899 180 -69.1765 -180 -11.2516 2.58504 -0.254707 4.56657 3.39192 -13.1797 10.2591 -12.6811 -76.2077 -0 -0 52.074 -5.74622e-06 -9.63994 5.51308 -0.934911 -5.27121e-08 -22.4052 1.90728 11.2446 -14.4949 -0 -0 55.6905 4.07552e-07 0.120695 -10.3154 -0.0216003 -4.00371e-07 -82.7326 
-36.57 71.869 -2.0097 128.024 86.4158 152.351 0 -0 0 2.11358 -17.4262 17.9843 13.2926 -17.3737 5.47625e-05 57.2965 -32.2163 9.85248 0 81.334 0 5.51367 4.33136 0.208697 -4.2188 17.9235 1.01168e-08 -32.859 -9.39598 -4.47988 180 -68.3948 -180 -11.4114 2.50189 -0.250001 4.3393 3.18142 -13.5658 10.3633 -13.0403 -76.3117 -0 -0 55.0122 -2.05169e-06 -9.19807 4.86586 -0.786907 -1.32147e-06 -17.1455 2.6145 10.6986 -12.6218 -0 -0 54.9774 -7.14703e-07 -0.358895 -9.27471 0.0578005 1.05527e-07 -84.2214 
-34.77 71.541 -1.9033 130.472 86.556 154.478 0 -0 0 3.17134 -17.7163 17.4736 13.3079 -17.4558 3.8978e-05 56.9039 -32.0812 9.22656 -2.89325e-06 82.1203 -3.32117e-06 6.1048 4.16544 0.222207 -4.32546 18.3412 -1.97168e-05 -33.2418 -8.02717 -4.03497 180 -67.6344 -180 -11.5679 2.4045 -0.243592 4.13525 2.97193 -13.9726 10.5336 -13.3438 -76.342 -0 -0 57.8651 -3.80276e-06 -8.73853 3.81556 -0.586008 1.69045e-06 -12.9435 3.31435 10.0902 -10.8248 -0 -0 54.2758 1.0514e-06 -0.768904 -8.06508 0.107901 3.14416e-07 -85.7752 
-32.993 71.239 -1.7858 133.278 86.7853 157.004 0 -0 0 4.27576 -17.9342 16.9632 13.402 -17.4983 8.10308e-05 56.4602 -31.7481 8.5702 -0 82.8207 -0 6.55447 4.00716 0.229501 -4.47589 18.7034 3.88511e-06 -33.6559 -6.57185 -3.58523 180 -66.9023 -180 -11.7181 2.2969 -0.23569 3.96796 2.77384 -14.3847 10.744 -13.5601 -76.2703 -0 -0 60.5652 8.81175e-06 -8.31536 2.42223 -0.353903 -8.62301e-07 -10.0133 3.98512 9.42202 -9.1328 -0 -0 53.5996 1.01575e-06 -1.09941 -6.6549 0.1274 7.5085e-07 -87.3314 
-31.247 70.965 -1.6594 136.594 87.0807 160.086 0 -0 0 5.40262 -18.0829 16.4515 13.5795 -17.5098 0.000111184 55.9698 -31.2229 7.88308 -1.75573e-06 83.4305 -1.96953e-06 6.85385 3.8527 0.230802 -4.6561 19.0034 -2.24965e-05 -34.1147 -5.03176 -3.12946 180 -66.211 180 -11.8626 2.18009 -0.226488 3.84924 2.58406 -14.7826 10.9748 -13.6911 -76.0886 -0 -0 63.081 -2.56207e-07 -7.95471 0.719405 -0.1005 -8.714e-08 -8.13574 4.59682 8.67963 -7.57385 -0 -0 52.9776 -1.86415e-06 -1.35075 -5.01617 0.1181 2.56032e-07 -88.7643 
-29.535 70.72 -1.527 140.521 87.4206 163.837 0 -0 0 6.52728 -18.1617 15.9324 13.8397 -17.4971 -0.000111753 55.4425 -30.5187 7.16618 0 83.9506 0 6.98981 3.70365 0.226298 -4.84879 19.2337 -1.49846e-05 -34.6366 -3.41313 -2.66329 180 -65.5675 -180 -12.0015 2.05658 -0.216206 3.78991 2.40038 -15.1546 11.206 -13.7412 -75.7922 -0 -0 65.3749 2.86527e-06 -7.68074 -1.21604 0.164005 3.25845e-07 -7.19396 5.12155 7.8617 -6.17659 -0 -0 52.4335 -1.60074e-06 -1.52595 -3.13964 0.0836008 -2.23488e-07 -89.9022 
